<svg width="41" height="41" viewBox="0 0 41 41" fill="none" xmlns="http://www.w3.org/2000/svg">
<g id="material-symbols-light:e911-emergency">
<path id="Vector" d="M9.96613 31.9135V30.2469H12.4093L15.5407 19.6744C15.6985 19.08 16.0174 18.6106 16.4973 18.2661C16.9762 17.9206 17.5128 17.7479 18.1072 17.7479H22.8502C23.4446 17.7479 23.9812 17.9201 24.4601 18.2645C24.94 18.61 25.2589 19.08 25.4167 19.6744L28.5498 30.2469H30.9913V31.9135H9.96613ZM19.6454 13.3898V6.72367H21.312V13.3898H19.6454ZM28.7281 17.1612L27.5398 15.973L32.2695 11.2833L33.4161 12.4316L28.7281 17.1612ZM31.3112 25.0556V23.3891H37.9774V25.0556H31.3112ZM12.2293 17.1612L7.54131 12.4316L8.68789 11.2833L13.4175 15.973L12.2293 17.1612ZM2.97998 25.0556V23.3891H9.64616V25.0556H2.97998Z" fill="white"/>
</g>
</svg>
