<svg width="21" height="21" viewBox="0 0 21 21" fill="none" xmlns="http://www.w3.org/2000/svg">
<path d="M0.7665 2.91769C0.862766 2.77273 1.01267 2.67194 1.18323 2.63748C1.3538 2.60302 1.53107 2.63772 1.67606 2.73394L3.64481 4.04775C3.78407 4.1465 3.87937 4.29562 3.91049 4.46348C3.9416 4.63133 3.90608 4.80471 3.81147 4.94681C3.71685 5.0889 3.57058 5.18853 3.40371 5.22456C3.23684 5.26058 3.0625 5.23016 2.91769 5.13975L0.948937 3.82725C0.80419 3.73078 0.703666 3.58079 0.669457 3.41023C0.635248 3.23968 0.670152 3.06252 0.7665 2.91769ZM10.5 2.625C8.93357 2.625 7.43129 3.24727 6.32365 4.3549C5.21601 5.46254 4.59375 6.96482 4.59375 8.53125V11.6826L3.3285 14.8496C3.2886 14.9492 3.27371 15.057 3.28514 15.1637C3.29657 15.2703 3.33397 15.3726 3.39407 15.4614C3.45417 15.5503 3.53513 15.623 3.62987 15.6734C3.72461 15.7237 3.83023 15.75 3.9375 15.75H17.0625C17.1696 15.7499 17.2751 15.7236 17.3696 15.6733C17.4642 15.6231 17.5451 15.5505 17.6052 15.4618C17.6652 15.3731 17.7027 15.2711 17.7142 15.1646C17.7258 15.0581 17.7111 14.9504 17.6715 14.8509L16.4062 11.6813V8.53125C16.4062 6.96482 15.784 5.46254 14.6763 4.3549C13.5687 3.24727 12.0664 2.625 10.5 2.625ZM10.5 19.0313C9.91793 19.0314 9.35233 18.8381 8.89212 18.4817C8.43191 18.1253 8.1032 17.6261 7.95769 17.0625H13.0423C12.8968 17.6261 12.5681 18.1253 12.1079 18.4817C11.6477 18.8381 11.0821 19.0314 10.5 19.0313ZM19.3239 2.73525C19.4687 2.64484 19.6431 2.61442 19.81 2.65045C19.9768 2.68647 20.1231 2.7861 20.2177 2.9282C20.3123 3.0703 20.3479 3.24367 20.3167 3.41153C20.2856 3.57938 20.1903 3.72851 20.0511 3.82725L18.0823 5.13975C17.9375 5.23016 17.7632 5.26058 17.5963 5.22456C17.4294 5.18853 17.2832 5.0889 17.1885 4.94681C17.0939 4.80471 17.0584 4.63133 17.0895 4.46348C17.1206 4.29562 17.2159 4.1465 17.3552 4.04775L19.3239 2.73525ZM0 8.53125C0 8.3572 0.0691404 8.19028 0.192211 8.06721C0.315282 7.94414 0.482202 7.875 0.65625 7.875H2.625C2.79905 7.875 2.96597 7.94414 3.08904 8.06721C3.21211 8.19028 3.28125 8.3572 3.28125 8.53125C3.28125 8.7053 3.21211 8.87222 3.08904 8.99529C2.96597 9.11836 2.79905 9.1875 2.625 9.1875H0.65625C0.482202 9.1875 0.315282 9.11836 0.192211 8.99529C0.0691404 8.87222 0 8.7053 0 8.53125ZM20.3438 7.875C20.5178 7.875 20.6847 7.94414 20.8078 8.06721C20.9309 8.19028 21 8.3572 21 8.53125C21 8.7053 20.9309 8.87222 20.8078 8.99529C20.6847 9.11836 20.5178 9.1875 20.3438 9.1875H18.375C18.201 9.1875 18.034 9.11836 17.911 8.99529C17.7879 8.87222 17.7188 8.7053 17.7188 8.53125C17.7188 8.3572 17.7879 8.19028 17.911 8.06721C18.034 7.94414 18.201 7.875 18.375 7.875H20.3438Z" fill="white"/>
</svg>
