<svg width="24" height="31" viewBox="0 0 24 31" fill="none" xmlns="http://www.w3.org/2000/svg">
<path id="Vector" d="M10.7383 0.248779V3.9985H13.2381V0.248779H10.7383ZM6.83856 2.07364L5.06369 3.83601L7.726 6.49832L9.48837 4.72345L6.83856 2.07364ZM17.1378 2.07364L14.488 4.72345L16.2504 6.49832L18.9127 3.84851L17.1378 2.07364ZM11.9882 6.49832C11.3252 6.49832 10.6894 6.76169 10.2205 7.2305C9.75174 7.6993 9.48837 8.33514 9.48837 8.99813V10.248H5.11369C4.28875 10.248 3.5888 10.773 3.33882 11.4979L0.739014 18.9974V28.9967C0.739014 29.3282 0.8707 29.6461 1.1051 29.8805C1.33951 30.1149 1.65743 30.2466 1.98892 30.2466H3.23883C3.57033 30.2466 3.88824 30.1149 4.12265 29.8805C4.35705 29.6461 4.48874 29.3282 4.48874 28.9967V27.7468H19.4876V28.9967C19.4876 29.3282 19.6193 29.6461 19.8537 29.8805C20.0881 30.1149 20.406 30.2466 20.7375 30.2466H21.9874C22.3189 30.2466 22.6369 30.1149 22.8713 29.8805C23.1057 29.6461 23.2374 29.3282 23.2374 28.9967V18.9974L20.6375 11.4979C20.3876 10.773 19.6876 10.248 18.8627 10.248H14.488V8.99813C14.488 8.33514 14.2246 7.6993 13.7558 7.2305C13.287 6.76169 12.6512 6.49832 11.9882 6.49832ZM5.11369 12.1229H18.8627L20.7375 17.7475H3.23883L5.11369 12.1229ZM5.11369 20.2473C5.61094 20.2473 6.08781 20.4448 6.43942 20.7964C6.79102 21.148 6.98855 21.6249 6.98855 22.1222C6.98855 22.6194 6.79102 23.0963 6.43942 23.4479C6.08781 23.7995 5.61094 23.997 5.11369 23.997C4.61645 23.997 4.13957 23.7995 3.78796 23.4479C3.43636 23.0963 3.23883 22.6194 3.23883 22.1222C3.23883 21.6249 3.43636 21.148 3.78796 20.7964C4.13957 20.4448 4.61645 20.2473 5.11369 20.2473ZM18.8627 20.2473C19.3599 20.2473 19.8368 20.4448 20.1884 20.7964C20.54 21.148 20.7375 21.6249 20.7375 22.1222C20.7375 22.6194 20.54 23.0963 20.1884 23.4479C19.8368 23.7995 19.3599 23.997 18.8627 23.997C18.3654 23.997 17.8886 23.7995 17.537 23.4479C17.1853 23.0963 16.9878 22.6194 16.9878 22.1222C16.9878 21.6249 17.1853 21.148 17.537 20.7964C17.8886 20.4448 18.3654 20.2473 18.8627 20.2473Z" fill="white"/>
</svg>
