<svg width="34" height="34" viewBox="0 0 34 34" fill="none" xmlns="http://www.w3.org/2000/svg">
<circle cx="16.5" cy="14.5" r="7.5" fill="white"/>
<path d="M17 2.83337C10.751 2.83337 5.66662 7.91779 5.66662 14.1596C5.62554 23.29 16.5693 30.8607 17 31.1667C17 31.1667 28.3744 23.29 28.3333 14.1667C28.3333 7.91779 23.2489 2.83337 17 2.83337ZM17 19.8334C13.8691 19.8334 11.3333 17.2975 11.3333 14.1667C11.3333 11.0359 13.8691 8.50004 17 8.50004C20.1308 8.50004 22.6666 11.0359 22.6666 14.1667C22.6666 17.2975 20.1308 19.8334 17 19.8334Z" fill="url(#paint0_linear_837_102)"/>
<defs>
<linearGradient id="paint0_linear_837_102" x1="0.772721" y1="-7.72724" x2="17" y2="36.3182" gradientUnits="userSpaceOnUse">
<stop stop-color="#0038FF"/>
<stop offset="1" stop-color="#00E0FF"/>
</linearGradient>
</defs>
</svg>
