<svg width="27" height="27" viewBox="0 0 27 27" fill="none" xmlns="http://www.w3.org/2000/svg">
<path d="M13.5002 4.83337C14.6494 4.83337 15.7516 5.28992 16.5643 6.10258C17.377 6.91524 17.8335 8.01744 17.8335 9.16671C17.8335 10.316 17.377 11.4182 16.5643 12.2308C15.7516 13.0435 14.6494 13.5 13.5002 13.5C12.3509 13.5 11.2487 13.0435 10.436 12.2308C9.62338 11.4182 9.16683 10.316 9.16683 9.16671C9.16683 8.01744 9.62338 6.91524 10.436 6.10258C11.2487 5.28992 12.3509 4.83337 13.5002 4.83337ZM13.5002 15.6667C18.2885 15.6667 22.1668 17.6059 22.1668 20V22.1667H4.8335V20C4.8335 17.6059 8.71183 15.6667 13.5002 15.6667Z" fill="white"/>
</svg>
