<svg width="18" height="18" viewBox="0 0 18 18" fill="none" xmlns="http://www.w3.org/2000/svg">
<g clip-path="url(#clip0_1140_11)">
<path d="M5.14278 1.83373C6.00003 2.45848 6.66753 3.31123 7.23753 4.12723L7.56903 4.61023L7.88178 5.07148C8.03822 5.30003 8.10511 5.57814 8.0697 5.85283C8.03429 6.12751 7.89907 6.37957 7.68978 6.56098L6.22653 7.64773C6.15584 7.69878 6.10608 7.77375 6.08649 7.85872C6.0669 7.94369 6.07882 8.03288 6.12003 8.10973C6.45153 8.71198 7.04103 9.60898 7.71603 10.284C8.39178 10.959 9.33078 11.5875 9.97503 11.9565C10.0558 12.0018 10.1509 12.0145 10.2407 11.9919C10.3306 11.9693 10.4083 11.9131 10.458 11.835L11.4105 10.3852C11.5856 10.1526 11.844 9.99678 12.1314 9.95037C12.4189 9.90395 12.7131 9.97055 12.9525 10.1362L13.4498 10.4805C14.379 11.1255 15.3773 11.8582 16.1408 12.8355C16.2619 12.9913 16.3389 13.1768 16.3638 13.3726C16.3888 13.5684 16.3607 13.7673 16.2825 13.9485C15.6548 15.4132 14.0663 16.6605 12.414 16.5997L12.189 16.587L12.0143 16.572L11.8208 16.5495L11.61 16.521L11.3813 16.4835C11.3412 16.4763 11.3012 16.4688 11.2613 16.461L11.0093 16.407C10.9652 16.3973 10.9212 16.3873 10.8773 16.377L10.6028 16.3065L10.314 16.224L10.0125 16.1265C8.62803 15.657 6.87078 14.7345 5.06778 12.9315C3.26553 11.1292 2.34303 9.37198 1.87353 7.98748L1.77603 7.68598L1.69353 7.39723L1.62303 7.12273L1.56453 6.86323C1.54764 6.78195 1.53189 6.70045 1.51728 6.61873L1.47978 6.38998L1.44978 6.17923L1.42803 5.98573L1.41303 5.81098L1.40103 5.58598C1.34028 3.93898 2.60103 2.33923 4.05903 1.71448C4.23452 1.6387 4.42668 1.60985 4.61668 1.63076C4.80668 1.65167 4.98798 1.72161 5.14278 1.83373ZM11.244 4.52998L11.331 4.53973C11.877 4.63603 12.3784 4.90269 12.7635 5.30149C13.1485 5.70029 13.3974 6.21076 13.4745 6.75973C13.502 6.94961 13.4557 7.14281 13.3451 7.29958C13.2345 7.45635 13.068 7.56476 12.8799 7.60252C12.6918 7.64028 12.4963 7.60451 12.3338 7.50256C12.1712 7.40062 12.0539 7.24026 12.006 7.05448L11.9888 6.96823C11.9586 6.75305 11.8668 6.55122 11.7244 6.38712C11.5819 6.22301 11.3951 6.10366 11.1863 6.04348L11.07 6.01723C10.8817 5.98385 10.7132 5.87978 10.5991 5.72631C10.485 5.57283 10.4338 5.38155 10.456 5.19159C10.4782 5.00162 10.5722 4.82732 10.7187 4.70434C10.8652 4.58136 11.0531 4.51899 11.244 4.52998ZM11.25 2.24998C12.4435 2.24998 13.5881 2.72408 14.432 3.568C15.2759 4.41191 15.75 5.5565 15.75 6.74998C15.7498 6.94114 15.6766 7.125 15.5454 7.264C15.4142 7.40301 15.2348 7.48665 15.044 7.49786C14.8532 7.50906 14.6652 7.44697 14.5187 7.32428C14.3721 7.20159 14.2779 7.02755 14.2553 6.83773L14.25 6.74998C14.2503 5.98829 13.9607 5.25505 13.44 4.69912C12.9193 4.1432 12.2066 3.80626 11.4465 3.75673L11.25 3.74998C11.0511 3.74998 10.8604 3.67096 10.7197 3.53031C10.5791 3.38966 10.5 3.19889 10.5 2.99998C10.5 2.80107 10.5791 2.6103 10.7197 2.46965C10.8604 2.329 11.0511 2.24998 11.25 2.24998Z" fill="white"/>
</g>
<defs>
<clipPath id="clip0_1140_11">
<rect width="18" height="18" fill="white"/>
</clipPath>
</defs>
</svg>
